<svg id="Capa_1" enable-background="new 0 0 512.532 512.532" height="512" viewBox="0 0 512.532 512.532" width="512" xmlns="http://www.w3.org/2000/svg"><g><path d="m76.328 371.429c-2.216-3.499-6.849-4.541-10.349-2.323-3.5 2.216-4.54 6.85-2.324 10.349 29.075 45.91 78.832 73.319 133.098 73.319 86.813 0 157.44-70.628 157.44-157.44s-70.627-157.44-157.44-157.44-157.44 70.628-157.44 157.44c0 18.555 3.2 36.726 9.511 54.008 1.421 3.89 5.727 5.891 9.618 4.472 3.891-1.421 5.893-5.727 4.472-9.617-5.707-15.629-8.601-32.068-8.601-48.862 0-78.542 63.898-142.44 142.44-142.44s142.44 63.898 142.44 142.44-63.898 142.44-142.44 142.44c-49.098-.001-94.116-24.803-120.425-66.346z"/><path d="m121.965 370.121c1.464 1.464 3.384 2.196 5.303 2.196s3.839-.732 5.303-2.196l37.926-37.926c7.412 5.295 16.472 8.423 26.255 8.423 24.97 0 45.285-20.314 45.285-45.285 0-22.414-16.373-41.066-37.785-44.652v-57.029c0-4.143-3.358-7.5-7.5-7.5s-7.5 3.357-7.5 7.5v57.029c-21.412 3.585-37.785 22.238-37.785 44.652 0 9.783 3.128 18.843 8.423 26.255l-37.926 37.926c-2.928 2.93-2.928 7.678.001 10.607zm74.788-105.072c16.699 0 30.285 13.585 30.285 30.284s-13.585 30.285-30.285 30.285-30.285-13.586-30.285-30.285 13.585-30.284 30.285-30.284z"/><path d="m272.987 130.303c34.436 15.939 63.659 42.957 82.286 76.077 1.363 2.423 3.903 3.82 6.546 3.82.057 0 .113-.001.17-.002h42.964c4.142 0 7.5-3.357 7.5-7.5s-3.358-7.5-7.5-7.5h-38.817c-7.966-13.431-17.561-25.876-28.457-37.052l14.913-18.466c2.468 1.201 5.133 1.805 7.791 1.805 5.216-.001 10.39-2.269 13.915-6.633l7.894-9.775c6.188-7.663 4.989-18.932-2.674-25.121l-30.239-24.421c-7.663-6.19-18.933-4.989-25.121 2.675l-7.894 9.774c-2.998 3.712-4.371 8.369-3.866 13.114.36 3.384 1.66 6.513 3.714 9.124l-14.874 18.418c-7.053-4.446-14.383-8.448-21.95-11.95-3.757-1.738-8.217-.103-9.957 3.656s-.102 8.217 3.656 9.957zm54.947-32.894 7.895-9.775c.565-.699 1.395-1.063 2.23-1.063.632 0 1.268.208 1.796.635l30.239 24.421c1.229.992 1.421 2.799.429 4.027l-7.894 9.774c-.993 1.229-2.799 1.422-4.027.429l-30.239-24.421c-.803-.648-1.001-1.484-1.048-1.925s-.029-1.299.619-2.102zm-.446 22.601 13.14 10.612-13.851 17.151c-4.223-3.727-8.602-7.276-13.123-10.631z"/><path d="m362.021 408.344h122.005c7.317 0 14.29-2.745 19.634-7.729 5.448-5.081 8.592-11.925 8.853-19.27.273-7.678-2.509-14.946-7.835-20.466-5.329-5.521-12.488-8.562-20.16-8.562h-99.407c4.424-14.637 7.127-29.825 8.038-45.157h57.338c12.516 0 22.771-9.593 23.348-21.839.298-6.337-1.944-12.351-6.314-16.931-4.309-4.517-10.358-7.106-16.598-7.106h-6.859c-4.772 0-8.827-3.664-9.04-8.168-.112-2.384.728-4.642 2.365-6.358 1.639-1.717 3.848-2.663 6.22-2.663h44.474c13.481 0 24.448-10.967 24.448-24.447s-10.967-24.448-24.448-24.448h-51.168c-4.142 0-7.5 3.357-7.5 7.5s3.358 7.5 7.5 7.5h51.168c5.209 0 9.448 4.238 9.448 9.448 0 5.209-4.238 9.447-9.448 9.447h-44.474c-6.418 0-12.641 2.664-17.073 7.31-4.495 4.712-6.802 10.897-6.495 17.418.594 12.596 11.146 22.462 24.023 22.462h6.859c2.191 0 4.231.874 5.745 2.46 1.512 1.585 2.287 3.67 2.184 5.872-.196 4.159-3.948 7.544-8.365 7.544h-57.658c-7.758 0-14.188 6.094-14.64 13.872-.834 14.367-3.373 28.6-7.544 42.3-1.375 4.518-.556 9.279 2.248 13.063 2.788 3.764 7.075 5.922 11.762 5.922h99.863c3.564 0 6.89 1.413 9.366 3.979 2.474 2.563 3.766 5.943 3.639 9.517-.246 6.91-6.301 12.532-13.497 12.532h-122.005c-7.363 0-14.327 3.501-18.627 9.364-16.545 22.559-38.383 41.268-63.152 54.105-25.955 13.452-54.044 20.272-83.488 20.272-48.073 0-93.395-18.588-127.619-52.341-34.189-33.718-53.407-78.706-54.114-126.678-.717-48.687 17.962-94.856 52.599-130.007 34.618-35.132 80.479-54.48 129.135-54.48 16.052 0 31.986 2.1 47.361 6.239 4 1.077 8.115-1.292 9.192-5.292s-1.292-8.115-5.292-9.192c-8.695-2.341-17.556-4.064-26.51-5.191v-22.68c9.607-1.533 16.979-9.853 16.979-19.884v-16.975c0-11.116-9.044-20.16-20.16-20.16h-43.143c-11.116 0-20.16 9.044-20.16 20.16v16.976c0 10.032 7.373 18.352 16.979 19.884v22.676c-28.403 3.6-55.434 13.388-79.57 28.702l-15.038-18.621c2.054-2.61 3.353-5.74 3.713-9.123.505-4.745-.868-9.402-3.866-13.113l-7.894-9.775c-6.188-7.663-17.458-8.862-25.122-2.675l-30.239 24.42c-7.662 6.188-8.861 17.458-2.673 25.12l7.895 9.776c2.998 3.711 7.262 6.033 12.006 6.539.644.068 1.286.103 1.925.103 2.717 0 5.361-.629 7.778-1.81l15.146 18.754c-36.913 37.921-56.812 87.531-56.04 139.849.765 51.934 21.569 100.637 58.58 137.138 37.048 36.538 86.111 56.66 138.151 56.66 31.421 0 62.678-7.592 90.391-21.955 26.809-13.895 50.442-34.141 68.346-58.552 1.485-2.025 3.927-3.235 6.531-3.235zm-192-350.763v-16.975c0-2.846 2.314-5.16 5.16-5.16h43.143c2.845 0 5.16 2.314 5.16 5.16v16.976c0 2.846-2.315 5.16-5.16 5.16h-43.143c-2.845-.001-5.16-2.315-5.16-5.161zm16.98 20.16h19.504v21.104c-3.245-.159-6.495-.266-9.751-.266-3.263 0-6.515.081-9.752.241v-21.079zm-120.053 70.304-14.071-17.423 13.14-10.612 14.026 17.368c-4.489 3.352-8.857 6.909-13.095 10.667zm-32.046-22.187c-.803.648-1.661.664-2.101.619-.441-.047-1.277-.245-1.925-1.048l-7.895-9.775c-.992-1.229-.8-3.035.429-4.027l30.238-24.421c.529-.427 1.165-.635 1.797-.635.836 0 1.666.364 2.23 1.063l7.895 9.776c.648.802.667 1.661.62 2.102s-.246 1.275-1.049 1.924l-30.239 24.422c.001-.001.001-.001 0 0z"/><path d="m430.898 171.7h31.043c4.142 0 7.5-3.357 7.5-7.5s-3.358-7.5-7.5-7.5h-31.043c-4.142 0-7.5 3.357-7.5 7.5s3.357 7.5 7.5 7.5z"/><path d="m446.42 319.988c-4.142 0-7.5 3.357-7.5 7.5s3.358 7.5 7.5 7.5h29.18c4.142 0 7.5-3.357 7.5-7.5s-3.358-7.5-7.5-7.5z"/><path d="m450.02 434.467h-90.133c-4.142 0-7.5 3.357-7.5 7.5s3.358 7.5 7.5 7.5h90.133c4.142 0 7.5-3.357 7.5-7.5s-3.358-7.5-7.5-7.5z"/><path d="m505.031 434.467h-18.431c-4.142 0-7.5 3.357-7.5 7.5s3.358 7.5 7.5 7.5h18.431c4.142 0 7.5-3.357 7.5-7.5s-3.358-7.5-7.5-7.5z"/></g></svg>