<svg id="icons" enable-background="new 0 0 64 64" height="512" viewBox="0 0 64 64" width="512" xmlns="http://www.w3.org/2000/svg"><path d="m57 21.99c3.31 0 6 2.689 6 6 0 3.31-2.69 6-6 6h-4v-12z" fill="#5c9eff"/><path d="m53 52-6 6v-6z" fill="#fff"/><path d="m29.47 33.99 2.98 4.58-3.48 5.41v.01h-6z" fill="#94c1ff"/><path d="m32.45 38.57 5.52-8.58 9 13.99v.01h-18v-.01z" fill="#94c1ff"/><path d="m24.98 25.97c1.1 0 2 .891 2 2 0 1.101-.9 2-2 2-1.11 0-2-.899-2-2 0-1.11.89-2 2-2z" fill="#d7e9ff"/><path d="m47 58v.01h-32v-24.02-12-3.99h38v3.99 12 18.01h-6zm-.03-14.01v-.01l-9-13.99-5.52 8.58-2.98-4.58-6.5 10h6zm-19.99-16.02c0-1.109-.9-2-2-2-1.11 0-2 .891-2 2 0 1.101.89 2 2 2 1.1 0 2-.9 2-2z" fill="#fff"/><path d="m7 25.99c1.1 0 2 .899 2 2 0 1.1-.9 2-2 2s-2-.9-2-2 .9-2 2-2z" fill="#d7e9ff"/><path d="m7 21.99c3.31 0 6 2.689 6 6 0 3.31-2.69 6-6 6s-6-2.69-6-6 2.69-6 6-6zm2 6c0-1.101-.9-2-2-2s-2 .899-2 2c0 1.1.9 2 2 2s2-.9 2-2z" fill="#94c1ff"/><path d="m15 21.99v12h-8c3.31 0 6-2.69 6-6 0-3.311-2.69-6-6-6z" fill="#5c9eff"/><path d="m7 9.99c1.1 0 2 .899 2 2 0 1.109-.9 2-2 2s-2-.891-2-2c0-1.1.9-2 2-2z" fill="#d7e9ff"/><path d="m7 5.99c3.31 0 6 2.68 6 6 0 3.31-2.69 6-6 6s-6-2.69-6-6c0-3.32 2.69-6 6-6zm2 6c0-1.101-.9-2-2-2s-2 .899-2 2c0 1.109.9 2 2 2s2-.89 2-2z" fill="#94c1ff"/><path d="m57 5.99c3.31 0 6 2.68 6 6 0 3.31-2.69 6-6 6h-50c3.31 0 6-2.69 6-6 0-3.32-2.69-6-6-6z" fill="#5c9eff"/><g fill="#116fff"><path d="m57 18.991c-.553 0-1-.447-1-1s.447-1 1-1c2.757 0 5-2.243 5-5s-2.243-5-5-5c-.553 0-1-.447-1-1s.447-1 1-1c3.859 0 7 3.141 7 7s-3.141 7-7 7z"/><path d="m7 18.991c-3.859 0-7-3.141-7-7s3.141-7 7-7 7 3.141 7 7-3.141 7-7 7zm0-12c-2.757 0-5 2.243-5 5s2.243 5 5 5 5-2.243 5-5-2.243-5-5-5z"/><path d="m57 18.995h-50c-.553 0-1-.447-1-1s.447-1 1-1h50c.553 0 1 .447 1 1s-.447 1-1 1z"/><path d="m57 6.991h-50c-.553 0-1-.447-1-1s.447-1 1-1h50c.553 0 1 .447 1 1s-.447 1-1 1z"/><path d="m57 34.993c-.553 0-1-.447-1-1s.447-1 1-1c2.757 0 5-2.243 5-5s-2.243-5-5-5c-.553 0-1-.447-1-1s.447-1 1-1c3.859 0 7 3.141 7 7s-3.141 7-7 7z"/><path d="m7 34.993c-3.859 0-7-3.141-7-7s3.141-7 7-7 7 3.141 7 7-3.141 7-7 7zm0-12c-2.757 0-5 2.243-5 5s2.243 5 5 5 5-2.243 5-5-2.243-5-5-5z"/><path d="m7 30.993c-1.654 0-3-1.346-3-3s1.346-3 3-3 3 1.346 3 3-1.346 3-3 3zm0-4c-.552 0-1 .448-1 1s.448 1 1 1 1-.448 1-1-.448-1-1-1z"/><path d="m7 14.995c-1.654 0-3-1.346-3-3s1.346-3 3-3 3 1.346 3 3-1.346 3-3 3zm0-4c-.552 0-1 .448-1 1s.448 1 1 1 1-.448 1-1-.448-1-1-1z"/><path d="m15 34.997h-7.999c-.553 0-1-.447-1-1s.447-1 1-1h7.999c.553 0 1 .447 1 1s-.447 1-1 1z"/><path d="m15 22.993h-7.999c-.553 0-1-.447-1-1s.447-1 1-1h7.999c.553 0 1 .447 1 1s-.447 1-1 1z"/><path d="m15.003 59.009c-.553 0-1-.447-1-1v-40.008c0-.553.447-1 1-1h37.998c.553 0 1 .447 1 1v34.002c0 .553-.447 1-1 1s-1-.447-1-1v-33.002h-35.998v39.008c0 .553-.447 1-1 1z"/><path d="m57 34.993h-3.999c-.553 0-1-.447-1-1s.447-1 1-1h3.999c.553 0 1 .447 1 1s-.447 1-1 1z"/><path d="m57 22.993h-3.999c-.553 0-1-.447-1-1s.447-1 1-1h3.999c.553 0 1 .447 1 1s-.447 1-1 1z"/><path d="m46.999 59.009h-31.996c-.553 0-1-.447-1-1s.447-1 1-1h31.996c.553 0 1 .447 1 1s-.447 1-1 1z"/><path d="m46.997 59.007c-.256 0-.512-.098-.707-.293-.391-.391-.391-1.023 0-1.414l6.004-6.004c.391-.391 1.023-.391 1.414 0s.391 1.023 0 1.414l-6.004 6.004c-.195.195-.451.293-.707.293z"/><path d="m46.997 59.009c-.553 0-1-.447-1-1v-6.006c0-.553.447-1 1-1s1 .447 1 1v6.006c0 .553-.447 1-1 1z"/><path d="m53.001 53.003h-6.004c-.553 0-1-.447-1-1s.447-1 1-1h6.004c.553 0 1 .447 1 1s-.447 1-1 1z"/><path d="m46.975 44.982c-.329 0-.65-.162-.842-.459l-9-13.985c-.299-.464-.165-1.083.3-1.382.464-.298 1.083-.164 1.382.3l9 13.985c.299.464.165 1.083-.3 1.382-.167.108-.355.159-.54.159z"/><path d="m28.973 44.982c-.186 0-.373-.052-.54-.159-.465-.299-.599-.918-.3-1.382l9-13.985c.299-.465.918-.598 1.382-.3.465.299.599.918.3 1.382l-9 13.985c-.192.297-.513.459-.842.459z"/><path d="m32.458 39.579c-.327 0-.647-.16-.84-.455l-2.983-4.59c-.301-.463-.169-1.082.294-1.384s1.082-.169 1.384.294l2.983 4.59c.301.463.169 1.082-.294 1.384-.168.109-.357.161-.544.161z"/><path d="m22.973 44.989c-.187 0-.376-.052-.544-.161-.463-.302-.595-.921-.294-1.384l6.5-10c.302-.463.922-.596 1.384-.294.463.302.595.921.294 1.384l-6.5 10c-.193.295-.513.455-.84.455z"/><path d="m24.976 30.972c-1.654 0-3-1.346-3-3s1.346-3 3-3 3 1.346 3 3-1.346 3-3 3zm0-4c-.552 0-1 .448-1 1s.448 1 1 1 1-.448 1-1-.449-1-1-1z"/><path d="m46.974 44.989h-24c-.553 0-1-.447-1-1s.447-1 1-1h24c.553 0 1 .447 1 1s-.448 1-1 1z"/></g></svg>