<?xml version="1.0" encoding="iso-8859-1"?>
<!-- Generator: Adobe Illustrator 19.0.0, SVG Export Plug-In . SVG Version: 6.00 Build 0)  -->
<svg version="1.1" id="Capa_1" xmlns="http://www.w3.org/2000/svg" xmlns:xlink="http://www.w3.org/1999/xlink" x="0px" y="0px"
	 viewBox="0 0 512 512" style="enable-background:new 0 0 512 512;" xml:space="preserve">
<circle style="fill:#FFEC00;" cx="256" cy="256" r="256"/>
<path style="fill:#F2D813;" d="M511.419,273.087L353.743,115.412L80,381.853l125.074,125.074C221.533,510.249,238.562,512,256,512
	C391.641,512,502.624,406.503,511.419,273.087z"/>
<rect x="115.33" y="182.33" style="fill:#6B7777;" width="281.33" height="105.33"/>
<rect x="255.57" y="182.33" style="fill:#55696E;" width="141.09" height="105.33"/>
<polygon style="fill:#FFFFFF;" points="309.859,71.527 158.257,71.527 158.257,319.676 353.743,319.676 353.743,115.412 "/>
<polygon style="fill:#F0F0F0;" points="353.743,115.412 309.859,71.527 255.571,71.527 255.571,319.676 353.743,319.676 "/>
<rect x="195.87" y="135.97" style="fill:#B9B9BE;" width="120.27" height="16.505"/>
<rect x="255.57" y="135.97" style="fill:#A0A0A5;" width="60.56" height="16.505"/>
<rect x="195.87" y="170.12" style="fill:#B9B9BE;" width="120.27" height="16.505"/>
<rect x="255.57" y="170.12" style="fill:#A0A0A5;" width="60.56" height="16.505"/>
<rect x="195.87" y="204.27" style="fill:#B9B9BE;" width="120.27" height="16.505"/>
<rect x="255.57" y="204.27" style="fill:#A0A0A5;" width="60.56" height="16.505"/>
<polygon style="fill:#FF00C3;" points="309.859,115.412 353.743,115.412 309.859,71.527 "/>
<polygon style="fill:#495959;" points="425,381.853 87,381.853 98.729,237.853 413.271,237.853 "/>
<polygon style="fill:#3F4A4A;" points="413.271,237.853 255.571,237.853 255.571,381.853 425,381.853 "/>
<g>
	<circle style="fill:#6B7777;" cx="134.82" cy="265.67" r="10.668"/>
	<circle style="fill:#6B7777;" cx="169.44" cy="265.67" r="10.668"/>
	<circle style="fill:#6B7777;" cx="204.07" cy="265.67" r="10.668"/>
	<circle style="fill:#6B7777;" cx="238.69" cy="265.67" r="10.668"/>
	<circle style="fill:#6B7777;" cx="134.82" cy="323.41" r="10.668"/>
	<circle style="fill:#6B7777;" cx="169.44" cy="323.41" r="10.668"/>
	<circle style="fill:#6B7777;" cx="204.07" cy="323.41" r="10.668"/>
	<circle style="fill:#6B7777;" cx="238.69" cy="323.41" r="10.668"/>
	<circle style="fill:#6B7777;" cx="152.18" cy="294.54" r="10.668"/>
	<circle style="fill:#6B7777;" cx="186.8" cy="294.54" r="10.668"/>
	<circle style="fill:#6B7777;" cx="221.43" cy="294.54" r="10.668"/>
</g>
<g>
	<circle style="fill:#55696E;" cx="273.31" cy="265.67" r="10.668"/>
	<circle style="fill:#55696E;" cx="307.93" cy="265.67" r="10.668"/>
	<circle style="fill:#55696E;" cx="342.56" cy="265.67" r="10.668"/>
	<circle style="fill:#55696E;" cx="377.18" cy="265.67" r="10.668"/>
	<circle style="fill:#55696E;" cx="273.31" cy="323.41" r="10.668"/>
	<circle style="fill:#55696E;" cx="307.93" cy="323.41" r="10.668"/>
	<circle style="fill:#55696E;" cx="342.56" cy="323.41" r="10.668"/>
	<circle style="fill:#55696E;" cx="377.18" cy="323.41" r="10.668"/>
	<circle style="fill:#55696E;" cx="290.67" cy="294.54" r="10.668"/>
</g>
<circle style="fill:#6B7777;" cx="256.05" cy="294.54" r="10.668"/>
<g>
	<path style="fill:#55696E;" d="M256.045,283.873c-0.16,0-0.316,0.017-0.474,0.024v21.289c0.158,0.007,0.314,0.024,0.474,0.024
		c5.892,0,10.668-4.776,10.668-10.668S261.937,283.873,256.045,283.873z"/>
	<circle style="fill:#55696E;" cx="325.29" cy="294.54" r="10.668"/>
	<circle style="fill:#55696E;" cx="359.91" cy="294.54" r="10.668"/>
</g>
<rect x="80" y="349.67" style="fill:#6B7777;" width="352" height="32.19"/>
<rect x="255.57" y="349.67" style="fill:#55696E;" width="176.43" height="32.19"/>
<g>
</g>
<g>
</g>
<g>
</g>
<g>
</g>
<g>
</g>
<g>
</g>
<g>
</g>
<g>
</g>
<g>
</g>
<g>
</g>
<g>
</g>
<g>
</g>
<g>
</g>
<g>
</g>
<g>
</g>
</svg>
