<svg xmlns="http://www.w3.org/2000/svg" xmlns:xlink="http://www.w3.org/1999/xlink" viewBox="0 0 774.51 851.4"><defs><style>.cls-1,.cls-31,.cls-48{fill:none;}.cls-2{fill:url(#linear-gradient);}.cls-19,.cls-3{fill:#fff;}.cls-4{isolation:isolate;}.cls-24,.cls-29,.cls-5{fill:#e4e5e5;}.cls-6{opacity:0.61;}.cls-7{fill:#8a55a1;}.cls-8{fill:url(#linear-gradient-2);}.cls-19,.cls-9{mix-blend-mode:soft-light;}.cls-10{clip-path:url(#clip-path-2);}.cls-11{fill:url(#linear-gradient-3);}.cls-12{clip-path:url(#clip-path-3);}.cls-13{clip-path:url(#clip-path-4);}.cls-14,.cls-43{stroke:#211e1f;}.cls-14,.cls-24,.cls-25,.cls-27,.cls-31,.cls-43,.cls-48{stroke-miterlimit:10;}.cls-15{fill:#293c8d;}.cls-16{fill:url(#linear-gradient-5);}.cls-17{fill:url(#linear-gradient-6);}.cls-18{fill:url(#linear-gradient-7);}.cls-19{opacity:0.3;}.cls-20,.cls-43{fill:#ced1d2;}.cls-21{fill:#60c6cb;}.cls-22{fill:#f1f1f1;}.cls-23,.cls-25,.cls-50{fill:#b9bbbd;}.cls-23{opacity:0.47;}.cls-24,.cls-25,.cls-27{stroke:#2c388b;}.cls-26{fill:#211e1f;}.cls-27,.cls-47{fill:#29a5de;}.cls-28{fill:#2c388b;}.cls-29{opacity:0.5;}.cls-30{fill:#414242;opacity:0.44;}.cls-31{stroke:url(#linear-gradient-8);}.cls-32{fill:url(#linear-gradient-9);}.cls-33{fill:#f05a2d;}.cls-34{fill:#f05a2b;}.cls-35{fill:url(#linear-gradient-10);}.cls-36{fill:#221f1f;opacity:0.42;mix-blend-mode:darken;}.cls-37{fill:#f9ad42;}.cls-38{fill:#603a19;}.cls-39{fill:url(#linear-gradient-11);}.cls-40{fill:#f7ad1c;}.cls-41{fill:url(#Orange_Yellow_3);}.cls-42{fill:#e82732;}.cls-44{fill:#bb3327;}.cls-45{fill:#f49021;}.cls-46{fill:#27265f;}.cls-48{stroke:#754e29;}.cls-49{fill:#1975b8;}.cls-51{fill:#754e29;}</style><linearGradient id="linear-gradient" x1="564.82" y1="638.09" x2="373.42" y2="795.32" gradientUnits="userSpaceOnUse"><stop offset="0" stop-color="#f48e85"/><stop offset="1" stop-color="#e871a6"/></linearGradient><clipPath id="clip-path"><path class="cls-3" d="M647.48,736.33C620.79,716.8,594.75,707.6,570.1,709c-10.76.6-18.33,3-25.66,5.32-9.3,3-18.08,5.74-32.68,5.13-26.23-1.1-48.63-10-63.07-25.11-22.35-23.38-27.32-62.55-12.65-99.79l.94.37c-14.53,36.88-9.64,75.63,12.44,98.72,14.26,14.91,36.42,23.72,62.38,24.8,14.42.6,23.12-2.16,32.33-5.08,7.39-2.34,15-4.76,25.91-5.37,24.91-1.4,51.15,7.87,78,27.54Z"/></clipPath><linearGradient id="linear-gradient-2" x1="413.91" y1="520.35" x2="653.11" y2="520.35" gradientUnits="userSpaceOnUse"><stop offset="0" stop-color="#ffc349"/><stop offset="1" stop-color="#f26e56"/></linearGradient><clipPath id="clip-path-2" transform="translate(-253.17 -29.32)"><path class="cls-1" d="M625.69,748.48c10.33-31.48,15-44.17,2.68-97.53-14.14-61.28-45.45-73.54-73.57-139.05-40.13-93.5,5.29-161.23-36.26-189.81-20.26-13.93-52.12-13.94-71.77.05-56,39.91-40.68,213.79,48.24,281.64,40.22,30.69,75.31,27.05,105.49,66.76C627.17,705.63,630.94,716.53,625.69,748.48Z"/></clipPath><linearGradient id="linear-gradient-3" x1="-2656.77" y1="-1353.99" x2="-2214.1" y2="-1790.64" gradientTransform="matrix(-0.96, 0.27, 0.27, 0.96, -4129.98, 1294.37)" gradientUnits="userSpaceOnUse"><stop offset="0" stop-color="#cd8ebb"/><stop offset="1" stop-color="#7f71b3"/></linearGradient><clipPath id="clip-path-3" transform="translate(-253.17 -29.32)"><path class="cls-1" d="M637.82,745.89c3.27-19.82,5.16-50.78-11-78.47-28.15-48.3-79.46-32.27-128.57-84-39.61-41.74-27.12-74.17-71-101.91-7.34-4.64-46.16-30.19-75-14.8C336,475.36,330.06,493.16,329,496.5,312.23,547,363.68,626.09,430.73,662.25c38.53,20.78,51,14,118.76,38.23A381.77,381.77,0,0,1,637.82,745.89Z"/></clipPath><clipPath id="clip-path-4" transform="translate(-253.17 -29.32)"><path class="cls-2" d="M638.51,729.05a214.13,214.13,0,0,0-53.34-28c-43.17-15.31-62.95-6.28-81.23-24.53-18.92-18.89-6.66-37.5-29.31-58.59-1.91-1.78-26.22-23.84-48.22-15.63-15.39,5.75-21.39,23.24-24.2,31.44-10.91,31.83-4.56,80.34,29.4,104.27,32.2,22.69,73,11.87,85.91,8.35,22.71-6.18,28.09-15,51.17-20.63C596.77,718.93,622,724,638.51,729.05Z"/></clipPath><linearGradient id="linear-gradient-5" x1="1239.73" y1="538.7" x2="380.99" y2="182.11" gradientTransform="translate(137.6 212.32) rotate(-7.9)" gradientUnits="userSpaceOnUse"><stop offset="0.1" stop-color="#311844"/><stop offset="0.27" stop-color="#371a47"/><stop offset="0.48" stop-color="#462150"/><stop offset="0.51" stop-color="#4a2252"/><stop offset="0.68" stop-color="#5c295d"/><stop offset="1" stop-color="#893b79"/></linearGradient><linearGradient id="linear-gradient-6" x1="1198.29" y1="520.77" x2="339.54" y2="164.17" gradientTransform="translate(137.6 212.32) rotate(-7.9)" gradientUnits="userSpaceOnUse"><stop offset="0.1" stop-color="#311844"/><stop offset="0.27" stop-color="#371a47"/><stop offset="0.48" stop-color="#462151"/><stop offset="0.72" stop-color="#612b61"/><stop offset="0.97" stop-color="#853976"/><stop offset="1" stop-color="#893b79"/></linearGradient><linearGradient id="linear-gradient-7" x1="76.95" y1="-15.53" x2="699.89" y2="374.54" gradientTransform="translate(137.6 212.32) rotate(-7.9)" gradientUnits="userSpaceOnUse"><stop offset="0" stop-color="#9380b9"/><stop offset="1" stop-color="#bc206f"/></linearGradient><linearGradient id="linear-gradient-8" x1="316.54" y1="561.65" x2="611.92" y2="561.65" gradientUnits="userSpaceOnUse"><stop offset="0" stop-color="#27a8e0"/><stop offset="1" stop-color="#2c388b"/></linearGradient><linearGradient id="linear-gradient-9" x1="323.1" y1="562.01" x2="550.99" y2="562.01" xlink:href="#linear-gradient-8"/><linearGradient id="linear-gradient-10" x1="692.86" y1="488.32" x2="762.26" y2="488.32" gradientUnits="userSpaceOnUse"><stop offset="0" stop-color="#00a34d"/><stop offset="1" stop-color="#8ac340"/></linearGradient><linearGradient id="linear-gradient-11" x1="416.85" y1="791.99" x2="505.26" y2="791.99" gradientUnits="userSpaceOnUse"><stop offset="0" stop-color="#e22328"/><stop offset="1" stop-color="#bc3228"/></linearGradient><linearGradient id="Orange_Yellow_3" x1="439.69" y1="682.14" x2="490.96" y2="682.14" gradientUnits="userSpaceOnUse"><stop offset="0" stop-color="#f8ed43"/><stop offset="0.04" stop-color="#f9e337"/><stop offset="0.12" stop-color="#fad224"/><stop offset="0.2" stop-color="#fbc819"/><stop offset="0.28" stop-color="#fbc515"/><stop offset="0.67" stop-color="#f08e41"/><stop offset="0.89" stop-color="#eb683a"/><stop offset="1" stop-color="#e53f39"/></linearGradient></defs><title>2</title><g class="cls-4"><g id="Layer_1" data-name="Layer 1"><path class="cls-5" d="M581.26,185.2A10.44,10.44,0,0,1,566,194.47a14.28,14.28,0,0,1-4.08,1.08v.08a10.43,10.43,0,0,1-17.61,7.56,10.43,10.43,0,0,1-11.89-3.56,8.9,8.9,0,0,1-15.05-1.77,11.88,11.88,0,0,1-17.91,3.19,11.9,11.9,0,0,1-21.28-7.32c0-.32,0-.63,0-.94a10.59,10.59,0,0,1-3.53.59,10.88,10.88,0,0,1,0-21.76,10.75,10.75,0,0,1,6.13,1.9,12.54,12.54,0,0,1-.12-1.75,11.94,11.94,0,0,1,18.8-9.78,7.46,7.46,0,0,1,12.19-3.08,21.77,21.77,0,0,1,41.91,8.25c0,.66,0,1.31-.09,2A14.13,14.13,0,0,1,573,175,10.43,10.43,0,0,1,581.26,185.2Z" transform="translate(-253.17 -29.32)"/><g class="cls-6"><path class="cls-7" d="M964.42,557.23A53,53,0,0,0,956.11,576c-3.81,16.8-.6,34.26,1.29,51.38,5.27,47.88-22,97.19-63.55,121.39C880.57,756.51,865.21,762,850,759.91c-28.49-3.84-49.18-32.35-77.78-35.35-25.49-2.68-51.44,15.79-75.6,7.24-10.84-3.84-19.16-12.56-29.15-18.25-19.62-11.15-41.84-5.84-61.63-13.57s-35.64-26.52-41.19-47c-3.92-14.41.93-24.46,2.07-38.68,1.24-15.45-2.18-31.22-7.78-45.56-8.54-21.8-22.08-41.21-34.17-61.27-38.48-63.79-83.69-203.13,18.87-236,17.1-5.48,35.34-6.32,53.29-6,28.59.58,57.17,4.09,85.71,2.35,36.16-2.2,68-15.45,95-39.57,23.44-21,47.26-38.51,81.56-31.69,34.69,6.89,59.17,39.58,69.44,71.2,12.12,37.31,26.28,74.88,51,105.86,15,18.78,34,35.26,42.86,57.6,10.27,25.81,4.29,55.54-10.7,78.23C998.92,529.14,977.06,539,964.42,557.23Z" transform="translate(-253.17 -29.32)"/><path class="cls-7" d="M714.59,716.43c-10.2,17.35-22.19,36.13-41.55,41.65-24.47,7-48.59-10.06-73.26-16.29-32.8-8.3-66.9,2.8-100,9.66s-71.71,8-96.3-15.21c-17.14-16.17-23.44-40.61-37.13-59.79-15.78-22.11-40.32-35.93-62.58-51.53s-44.1-35.65-49.33-62.31c-3.91-19.89,2.12-40.24,8.08-59.62q11.36-36.89,22.7-73.78c4.59-14.92,9.42-30.28,19.5-42.19,21.49-25.38,60.63-28.48,84.49-51.65,24.4-23.68,27.66-63.18,52-87,19.42-19,48.14-24.06,75-28.23,19.68-3.05,39.75-6.11,59.42-2.93,29.37,4.75,55.19,23.26,73.95,46.33s31.22,50.56,42.16,78.2c7,17.76,13.61,35.93,24.32,51.76,22.15,32.73,61.5,55.21,70.61,93.66,3.16,13.34,2.19,27.26,1.21,40.93-2.11,29.39,22.32,46.39-12.31,84.75C748.68,642.61,734.88,681.91,714.59,716.43Z" transform="translate(-253.17 -29.32)"/></g><path class="cls-7" d="M949.08,554.32a50.22,50.22,0,0,0-7.91,17.85c-3.62,16-.56,32.57,1.23,48.85,5,45.52-20.93,92.4-60.42,115.4C869.36,743.77,854.75,749,840.27,747c-27.09-3.65-46.76-30.75-73.95-33.61-24.24-2.54-48.9,15-71.88,6.89-10.3-3.65-18.21-11.94-27.71-17.35-18.65-10.6-39.77-5.55-58.59-12.9S574.26,664.82,569,645.39c-3.72-13.7.88-23.25,2-36.77,1.17-14.69-2.07-29.68-7.4-43.31-8.11-20.74-21-39.19-32.49-58.25-36.58-60.66-79.56-193.12,18-224.35,16.26-5.2,33.59-6,50.66-5.66,27.18.55,54.35,3.89,81.48,2.23,34.38-2.09,64.7-14.68,90.36-37.62,22.29-19.92,44.93-36.61,77.54-30.13,33,6.56,56.26,37.64,66,67.69,11.52,35.48,25,71.19,48.53,100.64,14.28,17.86,32.29,33.53,40.74,54.77,9.76,24.53,4.08,52.8-10.17,74.37C981.88,527.61,961.09,537,949.08,554.32Z" transform="translate(-253.17 -29.32)"/><path class="cls-7" d="M711.56,705.67c-9.7,16.49-21.1,34.34-39.51,39.6-23.26,6.63-46.19-9.57-69.64-15.5-31.19-7.88-63.61,2.67-95.1,9.19s-68.18,7.61-91.56-14.46c-16.29-15.37-22.28-38.61-35.29-56.84-15-21-38.34-34.16-59.5-49s-41.93-33.9-46.9-59.24c-3.72-18.91,2-38.26,7.68-56.68q10.78-35.08,21.58-70.15c4.36-14.18,8.95-28.79,18.54-40.11,20.43-24.13,57.65-27.07,80.33-49.1,23.19-22.52,26.29-60.07,49.4-82.67,18.47-18.06,45.77-22.88,71.3-26.84,18.72-2.9,37.8-5.81,56.5-2.79,27.92,4.52,52.47,22.11,70.3,44s29.69,48.06,40.09,74.34c6.68,16.89,12.94,34.16,23.12,49.21,21.06,31.12,58.47,52.49,67.13,89,3,12.68,2.08,25.92,1.15,38.92-2,27.93,21.22,44.1-11.7,80.57C744,635.49,730.85,672.85,711.56,705.67Z" transform="translate(-253.17 -29.32)"/><path class="cls-5" d="M969.87,236.37a11.89,11.89,0,0,1-17.35,10.56,15.79,15.79,0,0,1-4.66,1.23.31.31,0,0,1,0,.1,11.89,11.89,0,0,1-20.08,8.62,11.92,11.92,0,0,1-13.56-4.07,10.13,10.13,0,0,1-17.15-2,13.57,13.57,0,0,1-20.44,3.63,13.56,13.56,0,0,1-24.25-8.34c0-.36,0-.72,0-1.07a12.15,12.15,0,0,1-4,.67,12.41,12.41,0,1,1,7-22.65,14.45,14.45,0,0,1-.14-2A13.62,13.62,0,0,1,876.7,209.9a8.5,8.5,0,0,1,13.89-3.52,24.82,24.82,0,0,1,47.79,9.41c0,.75,0,1.5-.1,2.23a16,16,0,0,1,7.82-2,16.16,16.16,0,0,1,14.34,8.73A11.89,11.89,0,0,1,969.87,236.37Z" transform="translate(-253.17 -29.32)"/><path class="cls-8" d="M638.51,729.05c10.33-31.48,2.17-24.74-10.14-78.1-14.14-61.28-45.45-73.54-73.57-139.05-40.13-93.5,5.29-161.23-36.26-189.81-20.26-13.93-52.12-13.94-71.77.05-56,39.91-40.68,213.79,48.24,281.64,40.22,30.69,65.61,36.8,105.49,66.76C630.87,693.35,676.9,587.28,638.51,729.05Z" transform="translate(-253.17 -29.32)"/><g class="cls-9"><g class="cls-10"><path class="cls-3" d="M626.15,704.64A239,239,0,0,0,612.68,666c-12.79-28.54-26.9-44.24-44.77-64.12-11.66-13-24.88-27.68-40.16-48.77-28.58-39.45-37.45-53.31-45.4-75.65a220.6,220.6,0,0,1-10.47-103.53,215.11,215.11,0,0,1,27.85-79l.87.52A213.86,213.86,0,0,0,472.88,374,219.62,219.62,0,0,0,483.3,477.08c7.91,22.22,16.75,36,45.27,75.4,15.24,21,28.44,35.73,40.09,48.68,17.93,20,32.09,35.7,45,64.39a241.93,241.93,0,0,1,13.52,38.84Z" transform="translate(-253.17 -29.32)"/><path class="cls-3" d="M474.67,446.2l-.73-.4A116.84,116.84,0,0,1,442.43,418C428.81,400.88,414,372,420.86,331.46l1,.17c-6.77,40.1,7.87,68.75,21.35,85.73a117.9,117.9,0,0,0,30.5,27.14c.92-32.34,21.65-53.3,39-65.21a143.34,143.34,0,0,1,38.09-18.39l.26,1a141.6,141.6,0,0,0-37.8,18.26C496,392,475.26,413,474.69,445.37Z" transform="translate(-253.17 -29.32)"/><path class="cls-3" d="M479.4,550.2c-16.79,0-36.51-4.13-54.73-18.31l.62-.79c40.89,31.82,89.5,12.42,94.33,10.36-8.26-31.93-1-55.48,6.65-69.64,8.28-15.42,18.71-23.35,18.81-23.43l.61.81c-.1.08-10.39,7.9-18.56,23.14-7.53,14.05-14.77,37.48-6.43,69.29l.11.41-.39.17A109.42,109.42,0,0,1,479.4,550.2Z" transform="translate(-253.17 -29.32)"/><path class="cls-3" d="M516.85,611.11c-12.59,0-27.66-2.29-45.19-8.7l.34-.94c57.45,21,88.12-2.53,91.29-5.15-14-32.71,5.7-85.6,5.9-86.14l.95.36c-.2.53-19.88,53.42-5.78,85.72l.14.33-.26.24C564,597,548.08,611.11,516.85,611.11Z" transform="translate(-253.17 -29.32)"/></g></g><path class="cls-11" d="M637.82,745.89c3.27-19.82,5.16-50.78-11-78.47-28.15-48.3-79.46-32.27-128.57-84-39.61-41.74-27.12-74.17-71-101.91-7.34-4.64-46.16-30.19-75-14.8C336,475.36,330.06,493.16,329,496.5,312.23,547,363.68,626.09,430.73,662.25c38.53,20.78,51,14,118.76,38.23A381.77,381.77,0,0,1,637.82,745.89Z" transform="translate(-253.17 -29.32)"/><g class="cls-9"><g class="cls-12"><path class="cls-3" d="M643.47,769.76c-9.81-47.13-28.38-78.76-55.19-94-13.08-7.45-23.53-8.63-34.59-9.88-12.1-1.37-24.6-2.79-41.13-12.79-16.1-9.73-21.85-19.07-29.14-30.91-6.47-10.51-14.52-23.59-32.6-41-15.84-15.26-27.38-22.41-37.56-28.72-11.15-6.91-20-12.36-30.18-25.76-16.65-21.82-25.35-49.78-25.87-83.1l1,0c.51,33.1,9.15,60.86,25.67,82.51,10.1,13.25,18.84,18.66,29.9,25.51,10.22,6.33,21.82,13.51,37.74,28.86,18.16,17.5,26.25,30.64,32.75,41.2,7.22,11.72,12.91,21,28.8,30.58,16.35,9.88,28.74,11.29,40.72,12.64,11.17,1.27,21.72,2.46,35,10,27.07,15.42,45.8,47.28,55.68,94.7Z" transform="translate(-253.17 -29.32)"/><path class="cls-3" d="M413.84,555.32A129.1,129.1,0,0,1,338,530.79c-17.71-12.77-26.91-26-27-26.11l.83-.57c.09.13,9.21,13.22,26.79,25.88a128.1,128.1,0,0,0,78.71,24.27c-2.16-6.94-20.14-67.72,3.12-93.81l.75.67c-24.17,27.12-2.93,92.81-2.71,93.47l.21.64-.68,0C416.59,555.3,415.21,555.32,413.84,555.32Z" transform="translate(-253.17 -29.32)"/><path class="cls-3" d="M411.2,611.35a151.11,151.11,0,0,1-78.33-21.44l.51-.87c35.08,21,70,22.79,93.15,20.56,22.94-2.2,39.1-8.66,41.79-9.79-9.34-34.45-1-83-.93-83.52l1,.17c-.09.49-8.44,49.25,1,83.51l.12.42-.4.17c-.17.08-17.28,7.62-42.51,10.05C421.93,611.06,416.76,611.35,411.2,611.35Z" transform="translate(-253.17 -29.32)"/><path class="cls-3" d="M441.08,691.35c-1.68,0-3.38,0-5.09-.05l0-1c35.24.76,62.35-6.57,78.9-12.84,15.82-6,25.25-12.21,27.32-13.64-25.87-32.14-15.73-84.59-15.63-85.12l1,.2c-.1.52-10.23,53,15.76,84.7l.34.41-.43.32C542.88,664.59,505.73,691.35,441.08,691.35Z" transform="translate(-253.17 -29.32)"/></g></g><g class="cls-9"><path class="cls-2" d="M638.51,729.05a214.13,214.13,0,0,0-53.34-28c-43.17-15.31-62.95-6.28-81.23-24.53-18.92-18.89-6.66-37.5-29.31-58.59-1.91-1.78-26.22-23.84-48.22-15.63-15.39,5.75-21.39,23.24-24.2,31.44-10.91,31.83-4.56,80.34,29.4,104.27,32.2,22.69,73,11.87,85.91,8.35,22.71-6.18,28.09-15,51.17-20.63C596.77,718.93,622,724,638.51,729.05Z" transform="translate(-253.17 -29.32)"/><g class="cls-13"><path class="cls-3" d="M647.48,736.33C620.79,716.8,594.75,707.6,570.1,709c-10.76.6-18.33,3-25.66,5.32-9.3,3-18.08,5.74-32.68,5.13-26.23-1.1-48.63-10-63.07-25.11-22.35-23.38-27.32-62.55-12.65-99.79l.94.37c-14.53,36.88-9.64,75.63,12.44,98.72,14.26,14.91,36.42,23.72,62.38,24.8,14.42.6,23.12-2.16,32.33-5.08,7.39-2.34,15-4.76,25.91-5.37,24.91-1.4,51.15,7.87,78,27.54Z" transform="translate(-253.17 -29.32)"/><path class="cls-3" d="M438.81,679.42l-.73-.26c-.43-.16-43-15.71-45.62-48.69l1-.08c2.4,30,38.6,45.33,44.22,47.54-2.55-42.53,48.82-66,49.34-66.24l.42.93c-.52.23-51.88,23.71-48.7,66Z" transform="translate(-253.17 -29.32)"/><path class="cls-3" d="M446.84,729.76c-15.45,0-35.2-3.78-57.76-16.62l.5-.88c31.62,18,57.66,18.06,73.94,14.94,15.67-3,25.51-9.44,27.56-10.87-24.67-34.66,5.4-75.82,5.71-76.23l.81.6c-.3.41-30.17,41.3-5.41,75.45l.29.4-.39.3c-.1.08-10.54,7.92-28.38,11.34A89.79,89.79,0,0,1,446.84,729.76Z" transform="translate(-253.17 -29.32)"/></g></g><path class="cls-14" d="M423.63,224.16" transform="translate(-253.17 -29.32)"/><path class="cls-15" d="M447.57,226" transform="translate(-253.17 -29.32)"/><path class="cls-16" d="M633,388.55c7.7,2.65,16.28-2,19.15-10.3s-1-17.26-8.74-19.91c-.4-.14-.81-.24-1.21-.34a93.11,93.11,0,0,0,1.22-13.43c.41-.06.82-.12,1.24-.22,8.11-1.87,13.58-10.32,12.21-18.87s-9-14-17.15-12.1c-.42.1-.83.23-1.24.36a84.74,84.74,0,0,0-5.24-11.93c.35-.27.69-.55,1-.86,6.34-5.9,7.24-15.92,2-22.39s-14.61-6.94-21-1c-.32.3-.62.62-.92.94a75.45,75.45,0,0,0-10.29-7.24c.18-.41.35-.82.5-1.26,2.88-8.34,6.86-17.57-.88-20.1-17.92-5.86-24.14,2.15-27,10.49-.15.43-.27.87-.38,1.3a74.59,74.59,0,0,0-12.56-.64c0-.43-.08-.87-.15-1.31-1.36-8.55.54-13.54-7.73-12.56-18,2.15-23,10.79-21.64,19.34.08.45.17.88.28,1.31A85.25,85.25,0,0,0,523,274c-.24-.36-.49-.71-.76-1-5.23-6.47-14.62-6.93-21-1s-7.24,15.92-2,22.39a12.51,12.51,0,0,0,.84.94,91.66,91.66,0,0,0-7.31,11.32,11.72,11.72,0,0,0-1.16-.47c-7.71-2.66-16.28,1.95-19.16,10.3s1,17.25,8.75,19.91c.4.13.8.24,1.2.34A91.55,91.55,0,0,0,481.26,350c-.42.06-.83.13-1.24.22-8.11,1.88-13.58,10.32-12.22,18.88s9,14,17.15,12.09c.42-.1.84-.22,1.25-.36a83.71,83.71,0,0,0,5.24,11.94c-.35.27-.7.55-1,.86-6.34,5.89-7.24,15.92-2,22.39s19.77,7.8,26.12,1.9c.32-.3-4.53-1.48-4.24-1.81a73.73,73.73,0,0,0,10.29,7.24c-.18.41-.35.83-.5,1.26-2.87,8.34,1,17.26,8.75,19.91s16.28-1.95,19.15-10.29c.15-.44.27-.87.38-1.31a74.76,74.76,0,0,0,12.57.64c0,.44.07.88.14,1.31,1.37,8.56,9,14,17.15,12.1s13.58-10.32,12.22-18.88c-.07-.44-.17-.88-.28-1.3a83.62,83.62,0,0,0,11.48-6.18c.24.36.49.71.76,1.05,5.24,6.47,14.62,6.94,21,1s7.24-15.92,2-22.39c-.27-.33-.56-.64-.85-.94a92.48,92.48,0,0,0,7.32-11.32C632.22,388.25,632.6,388.41,633,388.55Zm-89.56,13.59c-28-9.63-42.19-42-31.75-72.29s41.57-47,69.54-37.39,42.19,42,31.76,72.3S571.41,411.78,543.44,402.14Z" transform="translate(-253.17 -29.32)"/><path class="cls-17" d="M644.66,344.35c8.11-1.87,13.58-10.32,12.21-18.87s-9-14-17.15-12.1c-.42.1-.83.23-1.24.36a84.74,84.74,0,0,0-5.24-11.93c.35-.27.69-.55,1-.86,6.34-5.9,13.38-19,7.51-24.9-11.14-11.19-20.12-4.43-26.47,1.47-.32.3-.62.62-.92.94a75.45,75.45,0,0,0-10.29-7.24c.18-.41.35-.82.5-1.26a16.46,16.46,0,0,0-.87-13q-7.68,19.33-15.05,38.78c23,12.38,33.78,41.56,24.31,69-8,23.28-28.27,38.54-49.91,40-.62,2.61-1.21,5.24-1.89,7.83-1.85,7.05-4.1,14-6.36,21q3.06.15,6.11,0c0,.44.07.88.14,1.31,1.37,8.56,7.58,15.12,22.36,12.26,8.17-1.58,8.37-10.48,7-19-.07-.44-.17-.88-.28-1.3a83.62,83.62,0,0,0,11.48-6.18c.24.36.49.71.76,1.05,5.24,6.47,20.41,7.42,26.75,1.53s1.45-16.41-3.78-22.88c-.27-.33-.56-.64-.85-.94a92.48,92.48,0,0,0,7.32-11.32c.38.17.76.33,1.16.47,7.7,2.65,16.28-2,19.15-10.3s-1-17.26-8.74-19.91c-.4-.14-.81-.24-1.21-.34a93.11,93.11,0,0,0,1.22-13.43C643.83,344.51,644.24,344.45,644.66,344.35Z" transform="translate(-253.17 -29.32)"/><path class="cls-18" d="M652.52,344.15c8.11-1.87,13.58-10.31,12.21-18.86s-9-14-17.15-12.1c-.42.1-.83.22-1.24.36a84.23,84.23,0,0,0-5.24-11.93c.35-.28.69-.56,1-.86,6.34-5.9,7.23-15.93,2-22.4s-14.62-6.93-21-1c-.33.31-.63.63-.93.95A74.48,74.48,0,0,0,612,271c.17-.41.35-.83.49-1.26,2.88-8.35-1-17.26-8.74-19.91s-16.28,2-19.15,10.29c-.15.43-.27.87-.38,1.3a75.82,75.82,0,0,0-12.57-.63c0-.43-.08-.87-.14-1.31-1.37-8.55-9-14-17.15-12.1s-13.58,10.32-12.22,18.87c.07.46.17.89.27,1.31a85.32,85.32,0,0,0-11.48,6.18,12.57,12.57,0,0,0-.75-1,13.73,13.73,0,0,0-13-5,15.15,15.15,0,0,0-8,3.95c-6.34,5.9-7.23,15.92-2,22.4.27.32.55.63.85.93a91.1,91.1,0,0,0-7.32,11.33,11.72,11.72,0,0,0-1.16-.47c-7.71-2.66-16.28,1.95-19.16,10.29s1,17.26,8.75,19.91a10.37,10.37,0,0,0,1.21.34,90.24,90.24,0,0,0-1.22,13.43c-.42.06-.83.12-1.24.22-8.11,1.87-13.58,10.32-12.22,18.88s9,14,17.15,12.09c.42-.11.84-.23,1.24-.36a84.78,84.78,0,0,0,5.25,11.93c-.35.28-.69.56-1,.86-6.34,5.9-7.24,15.92-2,22.39s14.62,6.94,21,1c.32-.3.63-.61.92-.94a74.08,74.08,0,0,0,10.3,7.24c-.18.41-.36.82-.51,1.26-2.87,8.34,1,17.25,8.75,19.91s16.28-1.95,19.16-10.3c.14-.43.26-.87.38-1.3a74.59,74.59,0,0,0,12.56.64c0,.44.08.87.15,1.3,1.36,8.56,9,14,17.15,12.11s13.58-10.33,12.21-18.88c-.07-.45-.17-.88-.27-1.31a85.86,85.86,0,0,0,11.48-6.17,12.7,12.7,0,0,0,.76,1.05c5.23,6.47,14.62,6.93,21,1a17,17,0,0,0,4.55-17.75,14.87,14.87,0,0,0-2.55-4.64q-.4-.5-.84-.93a92.54,92.54,0,0,0,7.31-11.33c.38.17.76.34,1.16.48,7.7,2.65,16.28-2,19.15-10.31s-1-17.25-8.74-19.91c-.4-.14-.8-.24-1.2-.34a93,93,0,0,0,1.21-13.43A9,9,0,0,0,652.52,344.15Zm-31.67,20.41c-7.08,20.55-23.69,34.86-42.36,38.93A50.2,50.2,0,0,1,551.31,402c-28-9.64-42.2-42-31.76-72.29a60.64,60.64,0,0,1,24.27-31.35c13.36-8.64,29.81-11.38,45.28-6C617.07,301.9,631.28,334.27,620.85,364.56Z" transform="translate(-253.17 -29.32)"/><path class="cls-19" d="M631.23,422.53c-6.34,5.9-15.73,5.44-21-1a12.7,12.7,0,0,1-.76-1.05A85.86,85.86,0,0,1,598,426.62c.1.43.2.86.27,1.31,1.37,8.55-4.11,17-12.21,18.88s-15.79-3.55-17.15-12.11c-.07-.43-.12-.86-.15-1.3a74.59,74.59,0,0,1-12.56-.64c-.12.43-.24.87-.38,1.3-2.88,8.35-11.45,12.95-19.16,10.3s-11.62-11.57-8.75-19.91c.15-.44.33-.85.51-1.26a74.08,74.08,0,0,1-10.3-7.24c-.29.33-.6.64-.92.94-6.34,5.9-15.73,5.44-21-1s-4.33-16.49,2-22.39c.33-.3.67-.58,1-.86a84.78,84.78,0,0,1-5.25-11.93c-.4.13-.82.25-1.24.36-8.11,1.87-15.78-3.54-17.15-12.09s4.11-17,12.22-18.88c.41-.1.82-.16,1.24-.22a90.24,90.24,0,0,1,1.22-13.43,10.37,10.37,0,0,1-1.21-.34c-7.71-2.65-11.62-11.57-8.75-19.91s11.45-13,19.16-10.29a11.72,11.72,0,0,1,1.16.47A91.1,91.1,0,0,1,508,295c-.3-.3-.58-.61-.85-.93-5.23-6.48-4.34-16.5,2-22.4a15.15,15.15,0,0,1,8-3.95c11,7.61,21.69,17.8,26.66,30.58a60.64,60.64,0,0,0-24.27,31.35C509.11,360,523.33,392.31,551.31,402a50.2,50.2,0,0,0,27.18,1.54c13.75,7.86,32.45,9.73,57.29,1.29A17,17,0,0,1,631.23,422.53Z" transform="translate(-253.17 -29.32)"/><polygon class="cls-20" points="562.15 721.5 372.85 721.5 389.87 649.97 541.57 649.97 562.15 721.5"/><rect class="cls-21" x="248.33" y="339.63" width="438.33" height="314.92" rx="22.54"/><rect class="cls-5" x="269.39" y="363.68" width="396.16" height="252.46" rx="22.71"/><path class="cls-22" d="M322,718.52H620.08a3.83,3.83,0,0,1,3.83,3.83v8.77a0,0,0,0,1,0,0H316.24a0,0,0,0,1,0,0v-6.84A5.76,5.76,0,0,1,322,718.52Z"/><path class="cls-23" d="M894.21,393,542.46,645h354s13.78,1,22.21-16.87V417.51S918.09,393,894.21,393Z" transform="translate(-253.17 -29.32)"/><path class="cls-24" d="M898.44,338,869.93,304.7l-2.47-.24s-5.27-9.6-6.2-9.92l3.3-3,8.18,8.65-.32,1.91,28.42,33.62Z" transform="translate(-253.17 -29.32)"/><rect class="cls-25" x="895.14" y="333.56" width="6.78" height="3.9" rx="1.13" transform="translate(-272.15 585.62) rotate(-37.41)"/><polygon class="cls-22" points="616.88 275.35 618.22 274.32 643.76 304.46 642.53 305.4 616.88 275.35"/><path class="cls-26" d="M904.46,334.46a2.74,2.74,0,0,0-3,.72c-1.39,1.45-6,4.32-5.82,6s1.19.12,1.19.12l8-6.25Z" transform="translate(-253.17 -29.32)"/><path class="cls-27" d="M906.7,334.12s6.58,12.39,12.58,16.4,30.57,25.16,32.21,37.57c0,0,.13,12.31-11.35,9.86,0,0-14.75-.41-31.1-37.41,0,0-4-11-13.7-16.5C895.34,344,896.27,339.08,906.7,334.12Z" transform="translate(-253.17 -29.32)"/><rect class="cls-28" x="918.73" y="374.22" width="35.38" height="3.61" rx="1.05" transform="translate(400.05 -621.84) rotate(51.82)"/><rect class="cls-28" x="911.75" y="379.73" width="35.38" height="3.61" rx="1.05" transform="translate(401.71 -614.25) rotate(51.82)"/><path class="cls-29" d="M904.87,335.26s11.68,22.26,22.21,21.47L919.66,351c-.41.62-9.41-7.17-12.91-16.67Z" transform="translate(-253.17 -29.32)"/><path class="cls-30" d="M941.19,397.88s5.5-8.36,10.15-8.79C951.34,389.09,950.85,398.91,941.19,397.88Z" transform="translate(-253.17 -29.32)"/><path class="cls-3" d="M762.37,381.48" transform="translate(-253.17 -29.32)"/><rect class="cls-31" x="317.04" y="543.7" width="294.38" height="35.9" rx="10.44"/><rect class="cls-32" x="323.1" y="549.08" width="227.9" height="25.85" rx="7.52"/><path class="cls-33" d="M918,349s-5.81-35,16.53-38.73,42.89-1,45.12,16.84,0,21.89,0,21.89h-5.8s9.51-31.56-16.54-34.73S920.21,317.7,923.34,349Z" transform="translate(-253.17 -29.32)"/><rect class="cls-34" x="661.68" y="317.17" width="67.32" height="62.58" rx="8"/><circle class="cls-3" cx="695.8" cy="341.46" r="6.11"/><polygon class="cls-3" points="698.35 347 701.9 361.57 689.69 361.57 693.24 347 698.35 347"/><path class="cls-35" d="M693.09,458.22s14.82,3.86,34.36-9.55c0,0,14.36,11.42,34.13,10.06,0,0,8.47,55.36-34.13,69.25C727.45,528,689.56,521,693.09,458.22Z" transform="translate(-253.17 -29.32)"/><path class="cls-5" d="M804.36,69.13a10.43,10.43,0,0,1-10.43,10.43,10.28,10.28,0,0,1-4.79-1.17,13.72,13.72,0,0,1-4.09,1.08v.09a10.42,10.42,0,0,1-17.6,7.56,10.43,10.43,0,0,1-11.89-3.56,8.91,8.91,0,0,1-15-1.77A11.89,11.89,0,0,1,722.59,85a11.9,11.9,0,0,1-21.27-7.32c0-.32,0-.63,0-.94A10.88,10.88,0,1,1,704,57.45a12.65,12.65,0,0,1-.13-1.75,11.94,11.94,0,0,1,18.81-9.78,7.46,7.46,0,0,1,12.18-3.09,21.77,21.77,0,0,1,41.91,8.25c0,.66,0,1.32-.09,2a14.17,14.17,0,0,1,19.44,5.89A10.43,10.43,0,0,1,804.36,69.13Z" transform="translate(-253.17 -29.32)"/><ellipse class="cls-36" cx="216.73" cy="845.66" rx="72.57" ry="5.74"/><path class="cls-37" d="M487.16,651.35c-.53,3.07,76.33,7.53,87.46,0L571,655.2c2,4-66,21.3-85.91,1.5C468.19,639.93,487.16,651.35,487.16,651.35Z" transform="translate(-253.17 -29.32)"/><polygon class="cls-37" points="243.46 803.66 244.78 828.88 234.89 828.88 234.89 803.66 243.46 803.66"/><path class="cls-37" d="M437,842.21c-1,1.64-7.25,22.17-7.25,22.17L420.85,860l6.59-21.75Z" transform="translate(-253.17 -29.32)"/><path class="cls-38" d="M486.12,853.82l-1.56,10.09s-1.89,3.45,3.95,3.45h23.73s5.4-4.51,0-8.23-10.71.8-12.57-10.09Z" transform="translate(-253.17 -29.32)"/><path class="cls-38" d="M421.45,851.53,415.9,861s-2.78,4.72,11.38,10.82h18.87s3.19-2.22-4.51-7.49c0,0-6.59-2.5-6.59-4.72v-2.22S424,855.41,421.45,851.53Z" transform="translate(-253.17 -29.32)"/><path class="cls-39" d="M450.65,733.65l33.81,2.13h3.25s9.75,28.7,13.32,33.53,4.23,15.65,4.23,20.59-2.93,47.3-2.93,47.3-14.95,11-24.37,8.93l3.9-51.63S477,781.34,473.73,781c0,0-2.93,12.6-3.58,15.3s-30.55,54-30.55,54l-22.75-5.4s9.42-20.7,13.65-25.19,15.93-31.5,16.58-40.2,0-39.89,0-39.89l-.65-6Z" transform="translate(-253.17 -29.32)"/><path class="cls-37" d="M497.52,597.17l2.13,8.09a7.08,7.08,0,0,0,2.56,6.82c3.55,3.12-.86,5-.86,5s-1,3-.8,4.26,2.93,8.37-3,8-26.83-8.38-27.4-9.09,4.11-30.38,4.11-30.38l19,.71Z" transform="translate(-253.17 -29.32)"/><path class="cls-26" d="M498,596s4.54-5.53-2.13-7.24-16.05-4.38-20.73-1.9S466,592.48,465,600,470.07,621,470.07,621l3.53-2.18s.07-17.77,6.46-13.93,3.83,8.94,3.83,8.94l4.47-.28s-4.12-9.52,3.84-11.15c0,0-.64-6.88-2.13-6.88S492.27,593.26,498,596Z" transform="translate(-253.17 -29.32)"/><path class="cls-40" d="M469.41,618.77a15.07,15.07,0,0,1-5.34,15.65L486,638.66l5.84-10.73Z" transform="translate(-253.17 -29.32)"/><path class="cls-41" d="M486,637.1s-10.65-.16-16-9.81c-1.8-3.26-15.73,12.5-17.19,17.72-2,7.06-24,92-6.49,90.93,5.7-.34,40.86,3.51,42.17,0s0-48.32,0-48.32S495.37,648.52,486,637.1Z" transform="translate(-253.17 -29.32)"/><path class="cls-42" d="M473.73,781a27.52,27.52,0,0,0-10.05,11c-3.3,7.06-6.59,20.9-6.59,20.9S452.81,825.41,441.6,831a23.7,23.7,0,0,0-12.68,16.79l10.68,2.53,30.55-54Z" transform="translate(-253.17 -29.32)"/><path class="cls-26" d="M604.71,595.43l-49.13,61.4s-4.53,21.4,17.12,15.47L615,602.49Z" transform="translate(-253.17 -29.32)"/><path class="cls-5" d="M601.28,604.35s-30,48.81-40.63,55.16C560.65,659.51,581.12,621.78,601.28,604.35Z" transform="translate(-253.17 -29.32)"/><circle class="cls-26" cx="384.74" cy="528.74" r="50.33"/><circle class="cls-43" cx="384.74" cy="528.74" r="42.52"/><path class="cls-5" d="M665.15,553.06s-12,29.89-39.32,30.06c0,0,7,8.77,14,5.32s35.31-17.51,29.14-34.94C668.93,553.5,668.55,549.05,665.15,553.06Z" transform="translate(-253.17 -29.32)"/><path class="cls-37" d="M478.14,658.62s29.76,21.54,79.19,4.41l3.42,6.13s-68,22.25-87.6,3.66Z" transform="translate(-253.17 -29.32)"/><path class="cls-37" d="M549.66,666.7s3.12.5,7.78-7.06c3.66-5.93,5.82-7.12,6.24-5.13s-2,5.13-2,5.13,7.78.07,14-3.33,3.7,1.84,1.93,4.68-11.53,8-14.49,7.93-11.65,2.45-11.65,2.45Z" transform="translate(-253.17 -29.32)"/><path class="cls-44" d="M491.84,666s1.94,11.41-3.78,13.29c0,0-11.17-1.67-14.91-6.49l5-14.2,13.7,6.51Z" transform="translate(-253.17 -29.32)"/><ellipse class="cls-36" cx="626.48" cy="779.74" rx="97.54" ry="5.74"/><path class="cls-26" d="M823.62,781.63s-5.71-3.81-8.29-1.72c0,0-19.52,3-15.2,17.57,0,0,3.1,7.23,11.12,7.08l3.75-.91Z" transform="translate(-253.17 -29.32)"/><path class="cls-37" d="M898.3,734.91s4-5.49,12.64-.41,1.21,16.82,1.21,16.82-7.95,6.24-12.47,2.79S898.3,734.91,898.3,734.91Z" transform="translate(-253.17 -29.32)"/><path class="cls-45" d="M849.77,801.73a19.44,19.44,0,0,0,14.79-3.31c6.86-5.14.76-14.07.76-14.07l-19.63,6.19Z" transform="translate(-253.17 -29.32)"/><polygon class="cls-46" points="597.25 726.87 638.91 725.6 640.09 741.96 604.51 748.3 597.25 726.87"/><path class="cls-46" d="M853.47,794.46c-1.14-.46-1.4-2.26-1.5-3-1.33-9.31,16.43-20.14,18.34-18.31C872.43,775.24,858,796.25,853.47,794.46Z" transform="translate(-253.17 -29.32)"/><path class="cls-46" d="M916.24,792.28c11.47,2.1,17.53-.47,20.92-3,11.09-8.42,12.3-31.24,12.3-31.25l-50.7,29.1c1.11,0,2.81,0,4.88-.14,3.06-.15,3.78-.31,4.68-.27C910.24,786.79,913,787.83,916.24,792.28Z" transform="translate(-253.17 -29.32)"/><path class="cls-47" d="M896.57,734.5s4.35-4.8,10.77,2.08c0,0,.29.26.69.69a19.44,19.44,0,0,1,1.42,1.66c1.88,2.49,3.69,4.89,5.24,5,1.79.07,3.69-3,4.92-7a34.38,34.38,0,0,1,8.44-2.09,35,35,0,0,1,14.79,1.5l5.82,4.23s4.61-1.16,1-11.18c0,0-8.29-52.77-13.67-56.67,0,0-8.12-16.36-23.23-16.29l-4.68-2.45s-56.06,15.19-58,16.35-8.08,5.08-7.92,11,0,11.44,0,11.44l-3.84,18.52,51.49-1.4s2.23-1.11,2.78,2.66S896.57,734.5,896.57,734.5Z" transform="translate(-253.17 -29.32)"/><polygon class="cls-45" points="619.81 635.26 638.48 628.85 640.78 647.61 624.09 648.35 619.81 635.26"/><path class="cls-37" d="M876.07,665.36a9.61,9.61,0,0,0,7.61-.55,34.23,34.23,0,0,0,8-5.56l-5.12-35.16-30.41-5.91-2.71,41.24Z" transform="translate(-253.17 -29.32)"/><path class="cls-48" d="M849.41,652.1c.41,4.47,2.86,8.44,4.46,12.62,2.28,6,2.84,12.44,3.11,18.83" transform="translate(-253.17 -29.32)"/><path class="cls-46" d="M890.48,674.18c1-.08,1.22,0,1.23.05.06.28-3.23,1.5-7,1.59-1.8,0-4.14.07-5.29-1.38a6.72,6.72,0,0,1-.44-.66l2.64,4h0l8.09-.58Z" transform="translate(-253.17 -29.32)"/><path class="cls-46" d="M890.73,677.64s-9.29,1.35-10.56.76,1.64,1.38,1.64,1.38l8.08-.58Z" transform="translate(-253.17 -29.32)"/><path class="cls-38" d="M860.9,605.52c-3,1.24-7,3.5-9.45,7.75-2.24,4-1.55,7-2.72,15.43-1.34,9.65-2.76,9.31-2.91,14.07-.29,9.16,4.95,11.57,9,22.63,5.83,16-.13,24.83,5.52,28.48,5.31,3.43,16.33-.54,20-8.09,3.94-8-.53-21-13.07-28.36a27.41,27.41,0,0,1-3-2.87,30.24,30.24,0,0,1-7.07-14.9s-3.73-5.76,1.56-13.41c5.94-8.58-.69-17.89,3.44-20.2a4.17,4.17,0,0,1,2.76-.4Z" transform="translate(-253.17 -29.32)"/><path class="cls-49" d="M859,710.63s-6.57-20.51-5.21-18.56,6,17.67,6,17.67l.27-7.62s2,3.5,2,4.6a30.74,30.74,0,0,0,.27,3.67Z" transform="translate(-253.17 -29.32)"/><circle class="cls-50" cx="604.91" cy="705.73" r="4.55"/><path class="cls-49" d="M902.68,732s8-1.49,13.29,10.85l2.08-1.53c-1.22-1.76-5.76-8.09-10.21-10.08-1-.47-3.08-1.38-4.36-.41A2.42,2.42,0,0,0,902.68,732Z" transform="translate(-253.17 -29.32)"/><path class="cls-5" d="M858.11,792.69" transform="translate(-253.17 -29.32)"/><path class="cls-37" d="M865.82,774.47c13.51,11.51,18.43,14.7,19.62,14.52a1,1,0,0,1,.83.14c.61.58-.24,2.48-1,4l-9-.15-.09,8.73-25.31-14,15.35-16.52Z" transform="translate(-253.17 -29.32)"/><path class="cls-51" d="M815.36,648" transform="translate(-253.17 -29.32)"/><path class="cls-20" d="M809.76,802.78s-14.37-6.86-1.2-16.8c0,0,1.33-1.32,5-2.54a42.1,42.1,0,0,1,10-1.81,39.6,39.6,0,0,1,20.46,4.25s1.1-.2,2.75,2.37l5.32,4.87c-1.93,6.29-1.87,8.28-1.32,8.78a.7.7,0,0,1,.28.47c0,.82-2.62,1.33-2.62,1.33S812.84,804.79,809.76,802.78Z" transform="translate(-253.17 -29.32)"/><rect class="cls-26" x="819.15" y="783.5" width="0.77" height="18.27" transform="translate(-307.98 31.59) rotate(-4.12)"/><rect class="cls-26" x="822.73" y="783.25" width="0.77" height="18.27" transform="translate(-307.95 31.84) rotate(-4.12)"/><rect class="cls-26" x="825.99" y="784.15" width="0.77" height="18.27" transform="translate(-308.01 32.08) rotate(-4.12)"/><rect class="cls-26" x="829.29" y="783.99" width="0.77" height="18.27" transform="translate(-307.99 32.32) rotate(-4.12)"/><path class="cls-50" d="M813.62,784.44s3.13,5.68,7.75,5.64,24.25-.5,24.25-.5l-.59-8.13S815.05,779.75,813.62,784.44Z" transform="translate(-253.17 -29.32)"/><path class="cls-50" d="M810.49,803.06s6.07-2.27,7.7-4.3,20.69,3.75,20.69,3.75-.39,1.41-1,1.41S810.58,803.94,810.49,803.06Z" transform="translate(-253.17 -29.32)"/><path class="cls-28" d="M821.49,733.12s-10.3-9.78-20.89,4.78,24.39,38.19,51.55,55.22c0,0,9.57-20.29,17.64-18.83S821.49,733.12,821.49,733.12Z" transform="translate(-253.17 -29.32)"/><path class="cls-28" d="M870.51,773.74s13.2-7.46,19.39-13.62,23-14,23-14,7.45-12.48,20-12.65,20.63,8.5,19.31,14.86c-.34,1.66-.73,3.69-1.36,5.87-1.78,6.16-5.46,13.56-15.34,17.39a123.75,123.75,0,0,0-22.38,11.27l-6.65,1.43a25.39,25.39,0,0,1-37.16-6.75Z" transform="translate(-253.17 -29.32)"/><path class="cls-5" d="M827.86,757.23s-9.78-45-7.2-45.08,72.39-2.28,72.39-2.28a5.34,5.34,0,0,1,1.46,3.22c.17,2,7.77,43.68,7.77,43.68s.89,1-1.63,1.89-69.94.41-69.94.41S828.21,758.78,827.86,757.23Z" transform="translate(-253.17 -29.32)"/><path class="cls-50" d="M821.69,712.12l69.77-2.37s2-1,2.78,2.66,8,44.36,8,44.36l-11.07-42.95Z" transform="translate(-253.17 -29.32)"/><circle class="cls-22" cx="607.22" cy="705.56" r="4.76"/><path class="cls-20" d="M907.38,783.63a12.91,12.91,0,0,1,5.28,3c4.89,4.74,5.4,13.61,1.49,22.39a35.15,35.15,0,0,0-9.22-3.07,36.09,36.09,0,0,0-17.58,1.24l-6.19-9,5.53-9.66Z" transform="translate(-253.17 -29.32)"/><path class="cls-26" d="M911,787.18a10.86,10.86,0,0,1,4.68,3.1c2,2.35,2.81,17.42,2.81,17.42l-.27.21s-4,1.66-5.55.51a1.76,1.76,0,0,1-.65-1.07C911.24,804.3,911,789,911,787.18Z" transform="translate(-253.17 -29.32)"/><rect class="cls-26" x="900.89" y="788.88" width="0.77" height="16.71" transform="translate(-308.1 37.47) rotate(-4.12)"/><rect class="cls-26" x="898.17" y="790.26" width="0.77" height="15.53" transform="translate(-308.16 37.28) rotate(-4.12)"/><rect class="cls-26" x="895.04" y="789.08" width="0.77" height="13.62" transform="translate(-308.01 37.05) rotate(-4.12)"/><rect class="cls-26" x="892.59" y="790.31" width="0.77" height="15.3" transform="translate(-308.17 36.88) rotate(-4.12)"/><path class="cls-20" d="M876.28,791.91s-3,13.87,5.94,16l6.58-.47-2.49-15.3Z" transform="translate(-253.17 -29.32)"/><path class="cls-50" d="M907.79,786.69a16.86,16.86,0,0,1-6.19,5.75c-7.35,3.89-15,.54-16.05,0l.63-3.35c3-.56,6.15-1.06,9.5-1.47C900,787.15,904,786.84,907.79,786.69Z" transform="translate(-253.17 -29.32)"/><path class="cls-50" d="M911.68,805.59s-6.47-3.34-8-5c-4.42-4.65-14.14,1.14-15.51,5.61a5.25,5.25,0,0,0-.22,1.51,35.16,35.16,0,0,1,7.26-1.65,36.37,36.37,0,0,1,8.87.09,34.17,34.17,0,0,1,8.58,2.28Z" transform="translate(-253.17 -29.32)"/><path class="cls-49" d="M906.51,726.55s9.77-28.07,10-52.72l1.24-3.63L916,696s6.57-14.67,7.27-16.22-4.48,13.39-4.48,13.39l3.25-4.08-2.65,6.67s6.33-10.29,6.53-13.23-4.36,28.28-13,38c0,0,18.72-.8,18.48,5.21,0,0-8.27-5.13-15.18-2.86A71.09,71.09,0,0,0,906.51,726.55Z" transform="translate(-253.17 -29.32)"/><path class="cls-49" d="M897.45,694,903,682s-2.45,9.43-3.91,11.85S897.45,694,897.45,694Z" transform="translate(-253.17 -29.32)"/><path class="cls-38" d="M861.53,605.34s-.63.92-1.47,2.42c-2.51,4.51-6.88,14.32-1.72,20.68,6.89,8.49,25.83-1.86,25.83-1.86a139.24,139.24,0,0,1,3.77,57.72,22.53,22.53,0,0,0,11.94,2.07,23.37,23.37,0,0,0,11.37-4.57c12.16-9.31-9.14-43.71-9.14-43.71a39.15,39.15,0,0,0-6.9-16.66S880.09,597.75,861.53,605.34Z" transform="translate(-253.17 -29.32)"/></g></g></svg>